Amstelvar-Roman-opsz8-wght100-wdth100.ufo
<glyph name="underscore" format="2">
	<unicode hex="005F"/>
	<advance width="1378"/>
	<outline>
		<contour>
			<point x="-18" y="-502" type="line"/>
			<point x="-18" y="-390" type="line"/>
			<point x="693" y="-390" type="line"/>
			<point x="1396" y="-390" type="line"/>
			<point x="1396" y="-502" type="line"/>
			<point x="693" y="-484" type="line"/>
		</contour>
	</outline>
</glyph>
<glyph name="braceleft" format="2">
	<unicode hex="007B"/>
	<advance width="691"/>
	<outline>
		<contour>
			<point x="57" y="478" type="line"/>
			<point x="57" y="592" type="line"/>
			<point x="180" y="602" type="line" smooth="yes"/>
			<point x="225" y="606"/>
			<point x="349" y="647"/>
			<point x="349" y="732" type="qcurve" smooth="yes"/>
			<point x="349" y="829"/>
			<point x="191" y="1072"/>
			<point x="191" y="1198" type="qcurve" smooth="yes"/>
			<point x="191" y="1337"/>
			<point x="362" y="1510"/>
			<point x="505" y="1510" type="qcurve" smooth="yes"/>
			<point x="557" y="1510"/>
			<point x="625" y="1503"/>
			<point x="659" y="1500" type="qcurve"/>
			<point x="659" y="1398" type="line"/>
			<point x="620" y="1400"/>
			<point x="560" y="1402"/>
			<point x="518" y="1402" type="qcurve" smooth="yes"/>
			<point x="407" y="1402"/>
			<point x="290" y="1318"/>
			<point x="290" y="1204" type="qcurve" smooth="yes"/>
			<point x="290" y="1079"/>
			<point x="465" y="847"/>
			<point x="465" y="759" type="qcurve" smooth="yes"/>
			<point x="465" y="665"/>
			<point x="350" y="564"/>
			<point x="259" y="548" type="qcurve"/>
			<point x="373" y="540"/>
			<point x="463" y="454"/>
			<point x="463" y="350" type="qcurve" smooth="yes"/>
			<point x="463" y="222"/>
			<point x="276" y="-62"/>
			<point x="276" y="-176" type="qcurve" smooth="yes"/>
			<point x="276" y="-309"/>
			<point x="403" y="-377"/>
			<point x="505" y="-377" type="qcurve" smooth="yes"/>
			<point x="550" y="-377"/>
			<point x="607" y="-376"/>
			<point x="654" y="-372" type="qcurve"/>
			<point x="654" y="-484" type="line"/>
			<point x="618" y="-488"/>
			<point x="547" y="-495"/>
			<point x="495" y="-495" type="qcurve" smooth="yes"/>
			<point x="355" y="-495"/>
			<point x="177" y="-329"/>
			<point x="177" y="-170" type="qcurve" smooth="yes"/>
			<point x="177" y="-50"/>
			<point x="343" y="255"/>
			<point x="343" y="388" type="qcurve"/>
			<point x="326" y="471" type="line"/>
		</contour>
	</outline>
</glyph>
<glyph name="onesuperior" format="2">
	<unicode hex="00B9"/>
	<advance width="745"/>
	<outline>
		<contour>
			<point x="107" y="620" type="line"/>
			<point x="107" y="711" type="line"/>
			<point x="343" y="739" type="line"/>
			<point x="343" y="1109" type="line"/>
			<point x="352" y="1362" type="line"/>
			<point x="105" y="1373" type="line"/>
			<point x="105" y="1465" type="line"/>
			<point x="439" y="1509" type="line"/>
			<point x="452" y="1491" type="line"/>
			<point x="450" y="1109" type="line"/>
			<point x="450" y="739" type="line"/>
			<point x="688" y="711" type="line"/>
			<point x="688" y="620" type="line"/>
		</contour>
	</outline>
</glyph>
<glyph name="Schwa" format="2">
	<unicode hex="018F"/>
	<advance width="1603"/>
	<outline>
		<contour>
			<point x="71" y="1247" type="line"/>
			<point x="159" y="1341"/>
			<point x="495" y="1520"/>
			<point x="727" y="1520" type="qcurve" smooth="yes"/>
			<point x="1086" y="1520"/>
			<point x="1518" y="1112"/>
			<point x="1518" y="751" type="qcurve" smooth="yes"/>
			<point x="1518" y="411"/>
			<point x="1103" y="-30"/>
			<point x="768" y="-30" type="qcurve" smooth="yes"/>
			<point x="459" y="-30"/>
			<point x="89" y="294"/>
			<point x="89" y="591" type="qcurve" smooth="yes"/>
			<point x="89" y="717" type="line"/>
			<point x="1450" y="717" type="line"/>
			<point x="1450" y="613" type="line"/>
			<point x="749" y="621" type="line"/>
			<point x="213" y="615" type="line"/>
			<point x="213" y="584" type="line" smooth="yes"/>
			<point x="213" y="316"/>
			<point x="519" y="86"/>
			<point x="768" y="86" type="qcurve" smooth="yes"/>
			<point x="1052" y="86"/>
			<point x="1398" y="412"/>
			<point x="1397" y="733" type="qcurve" smooth="yes"/>
			<point x="1397" y="1079"/>
			<point x="1016" y="1413"/>
			<point x="715" y="1413" type="qcurve" smooth="yes"/>
			<point x="516" y="1413"/>
			<point x="235" y="1260"/>
			<point x="159" y="1165" type="qcurve"/>
		</contour>
	</outline>
</glyph>
<glyph name="apostrophemod" format="2">
	<unicode hex="02BC"/>
	<advance width="560"/>
	<outline>
		<contour>
			<point x="168" y="1128" type="line"/>
			<point x="213" y="1167"/>
			<point x="276" y="1259"/>
			<point x="290" y="1309" type="qcurve"/>
			<point x="229" y="1314"/>
			<point x="180" y="1373"/>
			<point x="180" y="1414" type="qcurve" smooth="yes"/>
			<point x="180" y="1456"/>
			<point x="240" y="1518"/>
			<point x="285" y="1518" type="qcurve" smooth="yes"/>
			<point x="334" y="1518"/>
			<point x="396" y="1458"/>
			<point x="396" y="1398" type="qcurve" smooth="yes"/>
			<point x="396" y="1315"/>
			<point x="283" y="1139"/>
			<point x="211" y="1081" type="qcurve"/>
		</contour>
	</outline>
</glyph>
<glyph name="circumflex" format="2">
	<unicode hex="02C6"/>
	<advance width="1024"/>
	<outline>
		<contour>
			<point x="512" y="1460" type="qcurve" smooth="yes"/>
			<point x="550" y="1460"/>
			<point x="592" y="1432"/>
			<point x="647" y="1373" type="qcurve" smooth="yes"/>
			<point x="815" y="1181" type="line"/>
			<point x="747" y="1132" type="line"/>
			<point x="512" y="1342" type="line"/>
			<point x="277" y="1132" type="line"/>
			<point x="209" y="1181" type="line"/>
			<point x="377" y="1373" type="line" smooth="yes"/>
			<point x="436" y="1440"/>
			<point x="469" y="1460"/>
		</contour>
	</outline>
</glyph>
<glyph name="horncomb" format="2">
	<unicode hex="031B"/>
	<advance width="1024"/>
	<outline>
		<contour>
			<point x="-1" y="1050" type="line"/>
			<point x="69" y="1031"/>
			<point x="178" y="1008"/>
			<point x="252" y="1008" type="qcurve" smooth="yes"/>
			<point x="300" y="1008"/>
			<point x="382" y="1077"/>
			<point x="382" y="1120" type="qcurve" smooth="yes"/>
			<point x="382" y="1175"/>
			<point x="377" y="1239"/>
			<point x="355" y="1320" type="qcurve"/>
			<point x="445" y="1320" type="line"/>
			<point x="463" y="1272"/>
			<point x="493" y="1181"/>
			<point x="493" y="1104" type="qcurve" smooth="yes"/>
			<point x="493" y="1009"/>
			<point x="350" y="933"/>
			<point x="242" y="933" type="qcurve" smooth="yes"/>
			<point x="203" y="933"/>
			<point x="78" y="959"/>
			<point x="-1" y="992" type="qcurve"/>
		</contour>
	</outline>
</glyph>
<glyph name="lownumeralsign" format="2">
	<unicode hex="0375"/>
	<advance width="395"/>
	<outline>
		<contour>
			<point x="186" y="-268" type="line"/>
			<point x="39" y="-250" type="line"/>
			<point x="14" y="-215" type="line"/>
			<point x="208" y="248" type="line"/>
			<point x="288" y="220" type="line"/>
		</contour>
	</outline>
</glyph>
<glyph name="Lambda" format="2">
	<unicode hex="039B"/>
	<advance width="1513"/>
	<outline>
		<contour>
			<point x="-28" y="0" type="line"/>
			<point x="-28" y="98" type="line"/>
			<point x="173" y="133" type="line"/>
			<point x="330" y="558" type="line"/>
			<point x="688" y="1508" type="line"/>
			<point x="815" y="1508" type="line"/>
			<point x="1144" y="594" type="line"/>
			<point x="1316" y="133" type="line"/>
			<point x="1541" y="98" type="line"/>
			<point x="1541" y="0" type="line"/>
			<point x="961" y="0" type="line"/>
			<point x="962" y="98" type="line"/>
			<point x="1184" y="134" type="line"/>
			<point x="1043" y="526" type="line"/>
			<point x="731" y="1395" type="line"/>
			<point x="454" y="574" type="line"/>
			<point x="284" y="133" type="line"/>
			<point x="516" y="98" type="line"/>
			<point x="516" y="0" type="line"/>
		</contour>
	</outline>
</glyph>
<glyph name="beta" format="2">
	<unicode hex="03B2"/>
	<advance width="1211"/>
	<outline>
		<contour>
			<point x="180" y="-480" type="line"/>
			<point x="154" y="-463" type="line"/>
			<point x="164" y="120" type="line"/>
			<point x="171" y="1038" type="line" smooth="yes"/>
			<point x="173" y="1322"/>
			<point x="388" y="1570"/>
			<point x="604" y="1570" type="qcurve" smooth="yes"/>
			<point x="794" y="1570"/>
			<point x="1004" y="1372"/>
			<point x="1004" y="1184" type="qcurve" smooth="yes"/>
			<point x="1004" y="1002"/>
			<point x="781" y="778"/>
			<point x="541" y="743" type="qcurve" smooth="yes"/>
			<point x="498" y="735" type="line"/>
			<point x="472" y="751" type="line"/>
			<point x="528" y="920" type="line"/>
			<point x="601" y="911" type="line" smooth="yes"/>
			<point x="879" y="871"/>
			<point x="1120" y="636"/>
			<point x="1120" y="426" type="qcurve" smooth="yes"/>
			<point x="1120" y="219"/>
			<point x="859" y="-23"/>
			<point x="634" y="-23" type="qcurve"/>
			<point x="491" y="-23"/>
			<point x="271" y="103"/>
			<point x="212" y="197" type="qcurve"/>
			<point x="212" y="276" type="line"/>
			<point x="261" y="276" type="line"/>
			<point x="302" y="192"/>
			<point x="499" y="81"/>
			<point x="630" y="81" type="qcurve"/>
			<point x="806" y="81"/>
			<point x="996" y="267"/>
			<point x="996" y="427" type="qcurve" smooth="yes"/>
			<point x="996" y="597"/>
			<point x="788" y="771"/>
			<point x="604" y="790" type="qcurve"/>
			<point x="605" y="853" type="line"/>
			<point x="757" y="894"/>
			<point x="889" y="1070"/>
			<point x="889" y="1189" type="qcurve"/>
			<point x="889" y="1323"/>
			<point x="746" y="1459"/>
			<point x="600" y="1459" type="qcurve" smooth="yes"/>
			<point x="429" y="1459"/>
			<point x="290" y="1260"/>
			<point x="289" y="1040" type="qcurve" smooth="yes"/>
			<point x="286" y="155" type="line"/>
			<point x="292" y="-474" type="line"/>
		</contour>
	</outline>
</glyph>
<glyph name="mu" format="2">
	<unicode hex="03BC"/>
	<advance width="1303"/>
	<outline>
		<contour>
			<point x="211" y="-480" type="line"/>
			<point x="186" y="-463" type="line"/>
			<point x="197" y="287" type="line"/>
			<point x="189" y="1044" type="line"/>
			<point x="301" y="1050" type="line"/>
			<point x="327" y="1033" type="line"/>
			<point x="317" y="380" type="line"/>
			<point x="318" y="212"/>
			<point x="452" y="101"/>
			<point x="581" y="101" type="qcurve" smooth="yes"/>
			<point x="691" y="101"/>
			<point x="883" y="185"/>
			<point x="943" y="269" type="qcurve"/>
			<point x="945" y="466" type="line"/>
			<point x="938" y="1044" type="line"/>
			<point x="1050" y="1050" type="line"/>
			<point x="1075" y="1033" type="line"/>
			<point x="1067" y="406" type="line"/>
			<point x="1068" y="203"/>
			<point x="1098" y="112"/>
			<point x="1165" y="112" type="qcurve"/>
			<point x="1268" y="112" type="line"/>
			<point x="1268" y="20" type="line"/>
			<point x="1102" y="-8" type="line"/>
			<point x="1032" y="-4"/>
			<point x="956" y="76"/>
			<point x="951" y="158" type="qcurve"/>
			<point x="950" y="158" type="line"/>
			<point x="889" y="84"/>
			<point x="686" y="-12"/>
			<point x="578" y="-12" type="qcurve" smooth="yes"/>
			<point x="476" y="-12"/>
			<point x="346" y="44"/>
			<point x="320" y="78" type="qcurve"/>
			<point x="323" y="-474" type="line"/>
		</contour>
	</outline>
</glyph>
<glyph name="rho" format="2">
	<unicode hex="03C1"/>
	<advance width="1167"/>
	<outline>
		<contour>
			<point x="155" y="-480" type="line"/>
			<point x="129" y="-463" type="line"/>
			<point x="139" y="115" type="line"/>
			<point x="141" y="467" type="line" smooth="yes"/>
			<point x="143" y="791"/>
			<point x="390" y="1074"/>
			<point x="608" y="1074" type="qcurve"/>
			<point x="837" y="1074"/>
			<point x="1098" y="793"/>
			<point x="1098" y="536" type="qcurve" smooth="yes"/>
			<point x="1098" y="255"/>
			<point x="831" y="-22"/>
			<point x="615" y="-23" type="qcurve"/>
			<point x="462" y="-24"/>
			<point x="237" y="106"/>
			<point x="186" y="198" type="qcurve"/>
			<point x="186" y="277" type="line"/>
			<point x="235" y="277" type="line"/>
			<point x="270" y="199"/>
			<point x="466" y="81"/>
			<point x="608" y="81" type="qcurve"/>
			<point x="778" y="81"/>
			<point x="974" y="297"/>
			<point x="974" y="534" type="qcurve" smooth="yes"/>
			<point x="974" y="735"/>
			<point x="783" y="954"/>
			<point x="606" y="954" type="qcurve" smooth="yes"/>
			<point x="437" y="954"/>
			<point x="262" y="730"/>
			<point x="262" y="465" type="qcurve" smooth="yes"/>
			<point x="261" y="158" type="line"/>
			<point x="267" y="-474" type="line"/>
		</contour>
	</outline>
</glyph>
<glyph name="De" format="2">
	<unicode hex="0414"/>
	<advance width="1600"/>
	<outline>
		<contour>
			<point x="1436" y="-338" type="line"/>
			<point x="1373" y="0" type="line"/>
			<point x="182" y="0" type="line"/>
			<point x="119" y="-338" type="line"/>
			<point x="25" y="-338" type="line"/>
			<point x="35" y="107" type="line"/>
			<point x="1520" y="107" type="line"/>
			<point x="1530" y="-338" type="line"/>
		</contour>
		<contour>
			<point x="368" y="841" type="qcurve" smooth="yes"/>
			<point x="399" y="1369" type="line"/>
			<point x="171" y="1403" type="line"/>
			<point x="171" y="1500" type="line"/>
			<point x="1520" y="1500" type="line"/>
			<point x="1520" y="1403" type="line"/>
			<point x="1292" y="1369" type="line"/>
			<point x="1290" y="754" type="line"/>
			<point x="1292" y="0" type="line"/>
			<point x="1168" y="0" type="line"/>
			<point x="1170" y="754" type="line"/>
			<point x="1168" y="1379" type="line"/>
			<point x="1133" y="1393" type="line"/>
			<point x="550" y="1393" type="line"/>
			<point x="515" y="1375" type="line"/>
			<point x="483" y="835" type="line" smooth="yes"/>
			<point x="468.6650324939" y="593.0974233351"/>
			<point x="380.4141650543" y="174.724788845"/>
			<point x="308" y="48" type="qcurve"/>
			<point x="169" y="48" type="line"/>
			<point x="252.5105870196" y="176.2484014943"/>
			<point x="353.0878322908" y="587.0121112756"/>
		</contour>
	</outline>
</glyph>
<glyph name="Ze" format="2">
	<unicode hex="0417"/>
	<advance width="1339"/>
	<outline>
		<contour>
			<point x="695" y="83" type="qcurve" smooth="yes"/>
			<point x="892.4606741573" y="83"/>
			<point x="1130" y="239"/>
			<point x="1130" y="416" type="qcurve" smooth="yes"/>
			<point x="1130" y="559.536977492"/>
			<point x="934" y="728"/>
			<point x="706" y="726" type="qcurve" smooth="yes"/>
			<point x="501" y="724" type="line"/>
			<point x="501" y="831" type="line"/>
			<point x="688" y="829" type="line" smooth="yes"/>
			<point x="861" y="827"/>
			<point x="1058" y="981.495049505"/>
			<point x="1058" y="1131" type="qcurve" smooth="yes"/>
			<point x="1058" y="1280"/>
			<point x="861" y="1407"/>
			<point x="685" y="1406" type="qcurve" smooth="yes"/>
			<point x="497.9334494302" y="1405.0102298912"/>
			<point x="308.9915909284" y="1288.7030304748"/>
			<point x="298" y="1191" type="qcurve" smooth="yes"/>
			<point x="280" y="1031" type="line"/>
			<point x="180" y="1031" type="line"/>
			<point x="180" y="1500" type="line"/>
			<point x="273" y="1500" type="line"/>
			<point x="296" y="1378" type="line"/>
			<point x="365" y="1447"/>
			<point x="567" y="1520"/>
			<point x="708" y="1520" type="qcurve" smooth="yes"/>
			<point x="928" y="1520"/>
			<point x="1184" y="1332"/>
			<point x="1186" y="1142" type="qcurve" smooth="yes"/>
			<point x="1187" y="1019"/>
			<point x="1065" y="846"/>
			<point x="933" y="794" type="qcurve"/>
			<point x="933" y="787" type="line"/>
			<point x="1082" y="758"/>
			<point x="1259" y="582"/>
			<point x="1259" y="429" type="qcurve" smooth="yes"/>
			<point x="1259" y="209"/>
			<point x="981.9128919861" y="-31"/>
			<point x="695" y="-31" type="qcurve" smooth="yes"/>
			<point x="545.6359447005" y="-31"/>
			<point x="326.8462394345" y="41.1311941806"/>
			<point x="251" y="119" type="qcurve"/>
			<point x="233" y="0" type="line"/>
			<point x="140" y="0" type="line"/>
			<point x="140" y="477" type="line"/>
			<point x="240" y="477" type="line"/>
			<point x="265" y="312" type="line" smooth="yes"/>
			<point x="280.2523192386" y="211.3346930254"/>
			<point x="504.8491079286" y="83"/>
		</contour>
	</outline>
</glyph>
<glyph name="Tse" format="2">
	<unicode hex="0426"/>
	<advance width="1782"/>
	<outline>
		<contour>
			<point x="1352" y="746" type="line"/>
			<point x="1350" y="1369" type="line"/>
			<point x="1112" y="1403" type="line"/>
			<point x="1112" y="1500" type="line"/>
			<point x="1702" y="1500" type="line"/>
			<point x="1702" y="1403" type="line"/>
			<point x="1474" y="1369" type="line"/>
			<point x="1472" y="746" type="line"/>
			<point x="1474" y="107" type="line"/>
			<point x="1702" y="107" type="line"/>
			<point x="1712" y="-338" type="line"/>
			<point x="1618" y="-338" type="line"/>
			<point x="1555" y="0" type="line"/>
			<point x="88" y="0" type="line"/>
			<point x="88" y="98" type="line"/>
			<point x="316" y="130" type="line"/>
			<point x="318" y="746" type="line"/>
			<point x="316" y="1369" type="line"/>
			<point x="88" y="1403" type="line"/>
			<point x="88" y="1500" type="line"/>
			<point x="678" y="1500" type="line"/>
			<point x="678" y="1403" type="line"/>
			<point x="440" y="1369" type="line"/>
			<point x="438" y="746" type="line"/>
			<point x="438" y="134" type="line"/>
			<point x="503" y="107" type="line"/>
			<point x="1287" y="107" type="line"/>
			<point x="1352" y="135" type="line"/>
		</contour>
	</outline>
	<guideline x="1638" y="1367" angle="90" identifier="Ju90KfnAFs"/>
</glyph>
<glyph name="Sha" format="2">
	<unicode hex="0428"/>
	<advance width="2340"/>
	<outline>
		<contour>
			<point x="1226" y="134" type="line"/>
			<point x="1291" y="107" type="line"/>
			<point x="1825" y="107" type="line"/>
			<point x="1890" y="134" type="line"/>
			<point x="1890" y="754" type="line"/>
			<point x="1888" y="1369" type="line"/>
			<point x="1680" y="1404" type="line"/>
			<point x="1680" y="1500" type="line"/>
			<point x="2240" y="1500" type="line"/>
			<point x="2240" y="1404" type="line"/>
			<point x="2012" y="1369" type="line"/>
			<point x="2010" y="754" type="line"/>
			<point x="2012" y="133" type="line"/>
			<point x="2240" y="98" type="line"/>
			<point x="2240" y="0" type="line"/>
			<point x="88" y="0" type="line"/>
			<point x="88" y="98" type="line"/>
			<point x="316" y="133" type="line"/>
			<point x="318" y="754" type="line"/>
			<point x="316" y="1369" type="line"/>
			<point x="88" y="1404" type="line"/>
			<point x="88" y="1500" type="line"/>
			<point x="648" y="1500" type="line"/>
			<point x="648" y="1404" type="line"/>
			<point x="440" y="1369" type="line"/>
			<point x="438" y="754" type="line"/>
			<point x="438" y="134" type="line"/>
			<point x="503" y="107" type="line"/>
			<point x="1037" y="107" type="line"/>
			<point x="1102" y="134" type="line"/>
			<point x="1104" y="754" type="line"/>
			<point x="1102" y="1372" type="line"/>
			<point x="894" y="1404" type="line"/>
			<point x="894" y="1500" type="line"/>
			<point x="1434" y="1500" type="line"/>
			<point x="1434" y="1404" type="line"/>
			<point x="1226" y="1372" type="line"/>
			<point x="1224" y="754" type="line"/>
		</contour>
	</outline>
</glyph>
<glyph name="Hard" format="2">
	<unicode hex="042A"/>
	<advance width="1522"/>
	<outline>
		<contour>
			<point x="888" y="1500" type="line"/>
			<point x="888" y="1403" type="line"/>
			<point x="650" y="1369" type="line"/>
			<point x="648" y="892" type="line"/>
			<point x="647" y="895" type="line"/>
			<point x="922" y="895" type="line" smooth="yes"/>
			<point x="1212" y="895"/>
			<point x="1470" y="669"/>
			<point x="1470" y="455" type="qcurve" smooth="yes"/>
			<point x="1470" y="239"/>
			<point x="1217" y="0"/>
			<point x="972" y="0" type="qcurve" smooth="yes"/>
			<point x="298" y="0" type="line"/>
			<point x="298" y="98" type="line"/>
			<point x="526" y="133" type="line"/>
			<point x="528" y="764" type="line"/>
			<point x="526" y="1397" type="line"/>
			<point x="179" y="1397" type="line"/>
			<point x="135" y="1103" type="line"/>
			<point x="30" y="1103" type="line"/>
			<point x="30" y="1502" type="line"/>
		</contour>
		<contour>
			<point x="644" y="788" type="line"/>
			<point x="648" y="792" type="line"/>
			<point x="648" y="125" type="line"/>
			<point x="689" y="107" type="line"/>
			<point x="942" y="106" type="line" smooth="yes"/>
			<point x="1130" y="105"/>
			<point x="1339" y="273"/>
			<point x="1339" y="456" type="qcurve" smooth="yes"/>
			<point x="1339" y="628.9580838323"/>
			<point x="1145.002170302" y="788"/>
			<point x="916" y="788" type="qcurve" smooth="yes"/>
		</contour>
	</outline>
</glyph>
<glyph name="pe" format="2">
	<unicode hex="043F"/>
	<advance width="1351"/>
	<outline>
		<contour>
			<point x="260" y="525" type="line"/>
			<point x="258" y="926" type="line"/>
			<point x="90" y="953" type="line"/>
			<point x="90" y="1050" type="line"/>
			<point x="1261" y="1050" type="line"/>
			<point x="1261" y="953" type="line"/>
			<point x="1093" y="926" type="line"/>
			<point x="1091" y="525" type="line"/>
			<point x="1093" y="124" type="line"/>
			<point x="1261" y="97" type="line"/>
			<point x="1261" y="0" type="line"/>
			<point x="805" y="0" type="line"/>
			<point x="805" y="97" type="line"/>
			<point x="971" y="124" type="line"/>
			<point x="973" y="525" type="line"/>
			<point x="970" y="936" type="line"/>
			<point x="381" y="936" type="line"/>
			<point x="378" y="525" type="line"/>
			<point x="380" y="124" type="line"/>
			<point x="546" y="97" type="line"/>
			<point x="546" y="0" type="line"/>
			<point x="90" y="0" type="line"/>
			<point x="90" y="97" type="line"/>
			<point x="258" y="124" type="line"/>
		</contour>
	</outline>
	<guideline x="302" y="625" angle="90" identifier="jHuxcyi1x5"/>
	<guideline x="953" y="554" angle="90" identifier="b1mHk7wgTR"/>
</glyph>
<glyph name="shcha" format="2">
	<unicode hex="0449"/>
	<advance width="1904"/>
	<outline>
		<contour>
			<point x="1657" y="111" type="line"/>
			<point x="1824" y="111" type="line"/>
			<point x="1834" y="-318" type="line"/>
			<point x="1739" y="-318" type="line"/>
			<point x="1679" y="0" type="line"/>
			<point x="90" y="0" type="line"/>
			<point x="90" y="97" type="line"/>
			<point x="258" y="124" type="line"/>
			<point x="260" y="525" type="line"/>
			<point x="258" y="926" type="line"/>
			<point x="90" y="953" type="line"/>
			<point x="90" y="1050" type="line"/>
			<point x="539" y="1050" type="line"/>
			<point x="539" y="953" type="line"/>
			<point x="381" y="926" type="line"/>
			<point x="379" y="525" type="line"/>
			<point x="381" y="111" type="line"/>
			<point x="896" y="111" type="line"/>
			<point x="898" y="525" type="line"/>
			<point x="897" y="926" type="line"/>
			<point x="738" y="953" type="line"/>
			<point x="738" y="1050" type="line"/>
			<point x="1179" y="1050" type="line"/>
			<point x="1179" y="953" type="line"/>
			<point x="1020" y="926" type="line"/>
			<point x="1017" y="525" type="line"/>
			<point x="1019" y="111" type="line"/>
			<point x="1534" y="111" type="line"/>
			<point x="1536" y="525" type="line"/>
			<point x="1534" y="926" type="line"/>
			<point x="1376" y="953" type="line"/>
			<point x="1376" y="1050" type="line"/>
			<point x="1825" y="1050" type="line"/>
			<point x="1825" y="953" type="line"/>
			<point x="1657" y="926" type="line"/>
			<point x="1655" y="525" type="line"/>
		</contour>
	</outline>
</glyph>
<glyph name="ieukran" format="2">
	<unicode hex="0454"/>
	<advance width="1055"/>
	<outline>
		<contour>
			<point x="134" y="585" type="line"/>
			<point x="696" y="592" type="line"/>
			<point x="696" y="481" type="line"/>
			<point x="134" y="486" type="line"/>
		</contour>
		<contour>
			<point x="68" y="507" type="qcurve" smooth="yes"/>
			<point x="68" y="775"/>
			<point x="366" y="1070"/>
			<point x="581" y="1070" type="qcurve" smooth="yes"/>
			<point x="673.3432835821" y="1070"/>
			<point x="805" y="1021"/>
			<point x="850" y="970" type="qcurve"/>
			<point x="882" y="1050" type="line"/>
			<point x="962" y="1050" type="line"/>
			<point x="972" y="684" type="line"/>
			<point x="886" y="682" type="line"/>
			<point x="846" y="807" type="line" smooth="yes"/>
			<point x="817" y="898"/>
			<point x="689" y="960"/>
			<point x="580" y="960" type="qcurve" smooth="yes"/>
			<point x="407" y="960"/>
			<point x="198" y="714"/>
			<point x="199" y="510" type="qcurve" smooth="yes"/>
			<point x="200" y="321"/>
			<point x="425" y="92"/>
			<point x="629" y="92" type="qcurve" smooth="yes"/>
			<point x="734" y="92"/>
			<point x="896" y="179"/>
			<point x="948" y="252" type="qcurve"/>
			<point x="1015" y="167" type="line"/>
			<point x="954" y="79"/>
			<point x="739" y="-22"/>
			<point x="590" y="-22" type="qcurve" smooth="yes"/>
			<point x="354" y="-22"/>
			<point x="68" y="267"/>
		</contour>
	</outline>
	<guideline x="180" y="548" angle="90" identifier="n4jm0tBg3Y"/>
</glyph>
<glyph name="nje" format="2">
	<unicode hex="045A"/>
	<advance width="1681"/>
	<outline>
		<contour>
			<point x="319" y="613" type="line"/>
			<point x="623" y="610" type="line"/>
			<point x="969" y="613" type="line"/>
			<point x="969" y="497" type="line"/>
			<point x="623" y="499" type="line"/>
			<point x="319" y="497" type="line"/>
		</contour>
		<contour>
			<point x="260" y="525" type="line"/>
			<point x="258" y="926" type="line"/>
			<point x="90" y="953" type="line"/>
			<point x="90" y="1050" type="line"/>
			<point x="548" y="1050" type="line"/>
			<point x="548" y="953" type="line"/>
			<point x="380" y="926" type="line"/>
			<point x="378" y="525" type="line"/>
			<point x="380" y="124" type="line"/>
			<point x="546" y="97" type="line"/>
			<point x="546" y="0" type="line"/>
			<point x="90" y="0" type="line"/>
			<point x="90" y="97" type="line"/>
			<point x="258" y="124" type="line"/>
		</contour>
		<contour>
			<point x="1030" y="111" type="line"/>
			<point x="1273" y="111" type="line" smooth="yes"/>
			<point x="1417" y="111"/>
			<point x="1521" y="218.3886010363"/>
			<point x="1521" y="312" type="qcurve" smooth="yes"/>
			<point x="1521" y="400.4187192118"/>
			<point x="1417" y="507"/>
			<point x="1282" y="507" type="qcurve" smooth="yes"/>
			<point x="969" y="507" type="line"/>
			<point x="969" y="612" type="line"/>
			<point x="1280" y="612" type="line" smooth="yes"/>
			<point x="1461.9661016949" y="612"/>
			<point x="1646" y="467.8397435897"/>
			<point x="1646" y="312" type="qcurve" smooth="yes"/>
			<point x="1646" y="164.2333333333"/>
			<point x="1467.1355932203" y="0"/>
			<point x="1280" y="0" type="qcurve" smooth="yes"/>
			<point x="740" y="0" type="line"/>
			<point x="740" y="97" type="line"/>
			<point x="908" y="124" type="line"/>
			<point x="910" y="535" type="line"/>
			<point x="908" y="926" type="line"/>
			<point x="740" y="953" type="line"/>
			<point x="740" y="1050" type="line"/>
			<point x="1188" y="1050" type="line"/>
			<point x="1188" y="953" type="line"/>
			<point x="1030" y="926" type="line"/>
			<point x="1028" y="545" type="line"/>
		</contour>
	</outline>
	<guideline x="302" y="625" angle="90" identifier="jHuxcyi1x5"/>
	<guideline x="953" y="554" angle="90" identifier="b1mHk7wgTR"/>
	<guideline x="627" y="553" angle="90" identifier="m4aYe0x4PZ"/>
	<guideline x="302" y="625" angle="90" identifier="rq0U6aqci5"/>
	<guideline x="953" y="554" angle="90" identifier="XL8H0eYrVF"/>
	<guideline x="627" y="553" angle="90" identifier="gmHllUOvk8"/>
</glyph>
<glyph name="zhedescender" format="2">
	<unicode hex="0497"/>
	<advance width="1672"/>
	<outline>
		<contour>
			<point x="1058" y="496" type="line"/>
			<point x="1164" y="566" type="line"/>
			<point x="1563" y="46" type="line"/>
			<point x="1563" y="0" type="line"/>
			<point x="1404" y="0" type="line"/>
			<point x="1384" y="22" type="line"/>
			<point x="1367" y="91" type="line"/>
		</contour>
		<contour>
			<point x="843" y="582" type="line"/>
			<point x="1084" y="579" type="line"/>
			<point x="1345" y="936" type="line"/>
			<point x="1215" y="958" type="line"/>
			<point x="1215" y="1050" type="line"/>
			<point x="1658" y="1050" type="line"/>
			<point x="1658" y="958" type="line"/>
			<point x="1482" y="935" type="line"/>
			<point x="1134" y="467" type="line"/>
			<point x="843" y="465" type="line"/>
		</contour>
		<contour>
			<point x="628" y="496" type="line"/>
			<point x="319" y="91" type="line"/>
			<point x="302" y="22" type="line"/>
			<point x="282" y="0" type="line"/>
			<point x="15" y="0" type="line"/>
			<point x="15" y="97" type="line"/>
			<point x="198" y="131" type="line"/>
			<point x="532" y="566" type="line"/>
		</contour>
		<contour>
			<point x="843" y="582" type="line"/>
			<point x="843" y="465" type="line"/>
			<point x="542" y="467" type="line"/>
			<point x="194" y="935" type="line"/>
			<point x="28" y="958" type="line"/>
			<point x="28" y="1050" type="line"/>
			<point x="471" y="1050" type="line"/>
			<point x="471" y="958" type="line"/>
			<point x="341" y="936" type="line"/>
			<point x="602" y="579" type="line"/>
		</contour>
		<contour>
			<point x="902" y="525" type="line"/>
			<point x="905" y="124" type="line"/>
			<point x="1067" y="97" type="line"/>
			<point x="1067" y="0" type="line"/>
			<point x="619" y="0" type="line"/>
			<point x="619" y="97" type="line"/>
			<point x="781" y="124" type="line"/>
			<point x="784" y="525" type="line"/>
			<point x="781" y="926" type="line"/>
			<point x="619" y="953" type="line"/>
			<point x="619" y="1050" type="line"/>
			<point x="1067" y="1050" type="line"/>
			<point x="1067" y="953" type="line"/>
			<point x="905" y="926" type="line"/>
		</contour>
		<contour>
			<point x="1480" y="111" type="line"/>
			<point x="1692" y="111" type="line"/>
			<point x="1702" y="-318" type="line"/>
			<point x="1607" y="-318" type="line"/>
			<point x="1547" y="0" type="line"/>
			<point x="1534" y="0" type="line"/>
		</contour>
	</outline>
	<guideline x="241" y="553" angle="90" identifier="8KgqZm3A67"/>
</glyph>
<glyph name="Shha" format="2">
	<unicode hex="04BA"/>
	<advance width="1722"/>
	<outline>
		<contour>
			<point x="678" y="1500" type="line"/>
			<point x="678" y="1403" type="line"/>
			<point x="440" y="1369" type="line"/>
			<point x="438" y="756" type="line"/>
			<point x="440" y="133" type="line"/>
			<point x="678" y="98" type="line"/>
			<point x="678" y="0" type="line"/>
			<point x="88" y="0" type="line"/>
			<point x="88" y="98" type="line"/>
			<point x="316" y="133" type="line"/>
			<point x="318" y="746" type="line"/>
			<point x="316" y="1369" type="line"/>
			<point x="88" y="1403" type="line"/>
			<point x="88" y="1500" type="line"/>
		</contour>
		<contour>
			<point x="1642" y="98" type="line"/>
			<point x="1642" y="0" type="line"/>
			<point x="1052" y="0" type="line"/>
			<point x="1052" y="98" type="line"/>
			<point x="1291" y="133" type="line"/>
			<point x="1292" y="410" type="line" smooth="yes"/>
			<point x="1293" y="633"/>
			<point x="1082.0023866348" y="770"/>
			<point x="871" y="770" type="qcurve" smooth="yes"/>
			<point x="721.6060606061" y="770"/>
			<point x="487.0308309018" y="742.3081297763"/>
			<point x="378" y="704" type="qcurve"/>
			<point x="378" y="804" type="line"/>
			<point x="484.7380489699" y="837.9167632241"/>
			<point x="724" y="876"/>
			<point x="892" y="876" type="qcurve" smooth="yes"/>
			<point x="1151" y="876"/>
			<point x="1408" y="681"/>
			<point x="1411" y="411" type="qcurve" smooth="yes"/>
			<point x="1414" y="133" type="line"/>
		</contour>
	</outline>
</glyph>
<glyph name="colonsign" format="2">
	<unicode hex="20A1"/>
	<advance width="1335"/>
	<outline>
		<contour>
			<point x="46" y="742" type="qcurve" smooth="yes"/>
			<point x="46" y="1078"/>
			<point x="404" y="1483"/>
			<point x="668" y="1483" type="qcurve" smooth="yes"/>
			<point x="979" y="1483"/>
			<point x="1250" y="1197"/>
			<point x="1256" y="892" type="qcurve"/>
			<point x="1131" y="892" type="line"/>
			<point x="1127" y="1127"/>
			<point x="940" y="1367"/>
			<point x="712" y="1367" type="qcurve" smooth="yes"/>
			<point x="447" y="1367"/>
			<point x="157" y="1010"/>
			<point x="155" y="733" type="qcurve" smooth="yes"/>
			<point x="153" y="411"/>
			<point x="463" y="89"/>
			<point x="708" y="89" type="qcurve" smooth="yes"/>
			<point x="867" y="89"/>
			<point x="1070" y="191"/>
			<point x="1176" y="319" type="qcurve"/>
			<point x="1248" y="234" type="line"/>
			<point x="1110" y="78"/>
			<point x="865" y="-20"/>
			<point x="640" y="-20" type="qcurve" smooth="yes"/>
			<point x="419" y="-20"/>
			<point x="46" y="338"/>
		</contour>
		<contour>
			<point x="526" y="-122" type="line"/>
			<point x="582" y="88" type="line"/>
			<point x="592" y="87" type="line"/>
			<point x="783" y="840" type="line"/>
			<point x="862" y="803" type="line"/>
			<point x="679" y="60" type="line"/>
			<point x="699" y="59" type="line"/>
			<point x="648" y="-136" type="line"/>
		</contour>
		<contour>
			<point x="945" y="1568" type="line"/>
			<point x="1070" y="1568" type="line"/>
			<point x="1024" y="1381" type="line"/>
			<point x="993" y="1381" type="line"/>
			<point x="862" y="803" type="line"/>
			<point x="783" y="840" type="line"/>
			<point x="920" y="1434" type="line"/>
			<point x="909" y="1435" type="line"/>
		</contour>
		<contour>
			<point x="286" y="-125" type="line"/>
			<point x="354" y="123" type="line"/>
			<point x="364" y="122" type="line"/>
			<point x="538" y="849" type="line"/>
			<point x="617" y="803" type="line"/>
			<point x="438" y="63" type="line"/>
			<point x="448" y="62" type="line"/>
			<point x="408" y="-139" type="line"/>
		</contour>
		<contour>
			<point x="703" y="1586" type="line"/>
			<point x="828" y="1586" type="line"/>
			<point x="773" y="1402" type="line"/>
			<point x="762" y="1402" type="line"/>
			<point x="617" y="803" type="line"/>
			<point x="538" y="849" type="line"/>
			<point x="675" y="1408" type="line"/>
			<point x="664" y="1409" type="line"/>
		</contour>
	</outline>
</glyph>
<glyph name="lira" format="2">
	<unicode hex="20A4"/>
	<advance width="954"/>
	<outline>
		<contour>
			<point x="539" y="471" type="qcurve" smooth="yes"/>
			<point x="539" y="359"/>
			<point x="422" y="186"/>
			<point x="306" y="120" type="qcurve"/>
			<point x="312" y="108" type="line"/>
			<point x="792" y="108" type="line"/>
			<point x="890" y="313" type="line"/>
			<point x="952" y="313" type="line"/>
			<point x="869" y="0" type="line"/>
			<point x="48" y="0" type="line"/>
			<point x="24" y="60" type="line"/>
			<point x="53" y="97" type="line"/>
			<point x="220" y="91"/>
			<point x="418" y="297"/>
			<point x="418" y="439" type="qcurve" smooth="yes"/>
			<point x="418" y="571"/>
			<point x="332" y="710"/>
			<point x="262" y="796" type="qcurve" smooth="yes"/>
			<point x="192" y="882"/>
			<point x="113" y="1030"/>
			<point x="113" y="1172" type="qcurve" smooth="yes"/>
			<point x="113" y="1320"/>
			<point x="307" y="1521"/>
			<point x="474" y="1521" type="qcurve" smooth="yes"/>
			<point x="612" y="1521"/>
			<point x="797" y="1415"/>
			<point x="840" y="1353" type="qcurve"/>
			<point x="775" y="1273" type="line"/>
			<point x="735" y="1317"/>
			<point x="587" y="1409"/>
			<point x="476" y="1409" type="qcurve" smooth="yes"/>
			<point x="361" y="1409"/>
			<point x="228" y="1278"/>
			<point x="228" y="1168" type="qcurve" smooth="yes"/>
			<point x="228" y="1058"/>
			<point x="308" y="916"/>
			<point x="377" y="831" type="qcurve" smooth="yes"/>
			<point x="461" y="728"/>
			<point x="539" y="583"/>
		</contour>
		<contour>
			<point x="159" y="555" type="line"/>
			<point x="135" y="632" type="line"/>
			<point x="769" y="632" type="line"/>
			<point x="752" y="555" type="line"/>
		</contour>
		<contour>
			<point x="103" y="820" type="line"/>
			<point x="79" y="897" type="line"/>
			<point x="789" y="897" type="line"/>
			<point x="772" y="820" type="line"/>
		</contour>
	</outline>
</glyph>
<glyph name="rupeeIndian" format="2">
	<unicode hex="20B9"/>
	<advance width="1123"/>
	<outline>
		<contour>
			<point x="-5" y="1502" type="line"/>
			<point x="518" y="1495" type="line"/>
			<point x="1114" y="1493" type="line"/>
			<point x="1074" y="1381" type="line"/>
			<point x="729" y="1383" type="line"/>
			<point x="774" y="1346"/>
			<point x="862" y="1199"/>
			<point x="862" y="1119" type="qcurve" smooth="yes"/>
			<point x="862" y="974"/>
			<point x="708" y="748"/>
			<point x="592" y="699" type="qcurve"/>
			<point x="645" y="635"/>
			<point x="730" y="504"/>
			<point x="804" y="354" type="qcurve" smooth="yes"/>
			<point x="881" y="197"/>
			<point x="1010" y="84"/>
			<point x="1147" y="100" type="qcurve"/>
			<point x="1147" y="0" type="line"/>
			<point x="1040" y="-15" type="line"/>
			<point x="964" y="-8"/>
			<point x="816" y="82"/>
			<point x="765" y="180" type="qcurve" smooth="yes"/>
			<point x="701" y="308"/>
			<point x="557" y="565"/>
			<point x="473" y="682" type="qcurve"/>
			<point x="153" y="674" type="line"/>
			<point x="113" y="771" type="line"/>
			<point x="422" y="771" type="line" smooth="yes"/>
			<point x="578" y="771"/>
			<point x="750" y="981"/>
			<point x="750" y="1098" type="qcurve" smooth="yes"/>
			<point x="750" y="1191"/>
			<point x="658" y="1366"/>
			<point x="579" y="1394" type="qcurve"/>
			<point x="34" y="1388" type="line"/>
		</contour>
		<contour>
			<point x="782" y="1130" type="line"/>
			<point x="782" y="1127" type="line"/>
			<point x="1038" y="1147" type="line"/>
			<point x="1003" y="1034" type="line"/>
			<point x="772" y="1032" type="line"/>
			<point x="772" y="1032" type="line"/>
			<point x="64" y="1032" type="line"/>
			<point x="35" y="1124" type="line"/>
		</contour>
	</outline>
</glyph>
<glyph name="acutecomb.case" format="2">
	<advance width="1024"/>
	<outline>
		<contour>
			<point x="756" y="1844" type="qcurve" smooth="yes"/>
			<point x="756" y="1828"/>
			<point x="738" y="1796"/>
			<point x="721" y="1782" type="qcurve" smooth="yes"/>
			<point x="465" y="1597" type="line"/>
			<point x="425" y="1654" type="line"/>
			<point x="634" y="1869" type="line" smooth="yes"/>
			<point x="654" y="1891"/>
			<point x="678" y="1898"/>
			<point x="696" y="1898" type="qcurve" smooth="yes"/>
			<point x="730" y="1898"/>
			<point x="756" y="1862"/>
		</contour>
	</outline>
</glyph>
<glyph name="caroncomb.case" format="2">
	<advance width="1024"/>
	<outline>
		<contour>
			<point x="512" y="1635" type="qcurve" smooth="yes"/>
			<point x="483" y="1635"/>
			<point x="411" y="1676"/>
			<point x="363" y="1726" type="qcurve" smooth="yes"/>
			<point x="212" y="1917" type="line"/>
			<point x="286" y="1959" type="line"/>
			<point x="512" y="1740" type="line"/>
			<point x="744" y="1966" type="line"/>
			<point x="812" y="1917" type="line"/>
			<point x="661" y="1726" type="line" smooth="yes"/>
			<point x="619" y="1674"/>
			<point x="540" y="1635"/>
		</contour>
	</outline>
</glyph>
<glyph name="cedillacomb.case" format="2">
	<advance width="1024"/>
	<outline>
		<contour>
			<point x="530" y="7" type="line"/>
			<point x="495" y="-99" type="line"/>
			<point x="511" y="-93"/>
			<point x="543" y="-90"/>
			<point x="558" y="-90" type="qcurve" smooth="yes"/>
			<point x="638" y="-90"/>
			<point x="774" y="-170"/>
			<point x="774" y="-267" type="qcurve" smooth="yes"/>
			<point x="774" y="-350"/>
			<point x="625" y="-442"/>
			<point x="510" y="-442" type="qcurve" smooth="yes"/>
			<point x="472" y="-442"/>
			<point x="355" y="-408"/>
			<point x="311" y="-387" type="qcurve"/>
			<point x="336" y="-316" type="line"/>
			<point x="378" y="-343"/>
			<point x="469" y="-363"/>
			<point x="528" y="-363" type="qcurve" smooth="yes"/>
			<point x="591" y="-363"/>
			<point x="670" y="-318"/>
			<point x="670" y="-268" type="qcurve" smooth="yes"/>
			<point x="670" y="-213"/>
			<point x="599" y="-175"/>
			<point x="555" y="-175" type="qcurve" smooth="yes"/>
			<point x="528" y="-175"/>
			<point x="473" y="-186"/>
			<point x="455" y="-194" type="qcurve"/>
			<point x="405" y="-147" type="line"/>
			<point x="440" y="-18" type="line"/>
		</contour>
	</outline>
</glyph>
<glyph name="five.lc" format="2">
	<advance width="873"/>
	<outline>
		<contour>
			<point x="717" y="123" type="qcurve" smooth="yes"/>
			<point x="718" y="269"/>
			<point x="498" y="439"/>
			<point x="300" y="419" type="qcurve" smooth="yes"/>
			<point x="157" y="404" type="line"/>
			<point x="124" y="450" type="line"/>
			<point x="196" y="1067" type="line"/>
			<point x="225" y="1100" type="line"/>
			<point x="824" y="1100" type="line"/>
			<point x="811" y="987" type="line"/>
			<point x="271" y="987" type="line"/>
			<point x="261" y="976" type="line"/>
			<point x="241" y="800"/>
			<point x="212" y="520"/>
			<point x="214" y="476" type="qcurve"/>
			<point x="393" y="502" type="line"/>
			<point x="605" y="499"/>
			<point x="846" y="303"/>
			<point x="849" y="144" type="qcurve" smooth="yes"/>
			<point x="853" y="-108"/>
			<point x="478" y="-382"/>
			<point x="119" y="-382" type="qcurve" smooth="yes"/>
			<point x="72" y="-382"/>
			<point x="11" y="-375"/>
			<point x="-27" y="-367" type="qcurve"/>
			<point x="-20" y="-281" type="line"/>
			<point x="20" y="-286"/>
			<point x="58" y="-289"/>
			<point x="99" y="-289" type="qcurve" smooth="yes"/>
			<point x="402" y="-289"/>
			<point x="717" y="-77"/>
		</contour>
	</outline>
</glyph>
<glyph name="kai-tail" format="2">
  <advance width="1182"/>
  <outline>
    <contour>
      <point x="623" y="-534" type="qcurve" smooth="yes"/>
      <point x="424" y="-534"/>
      <point x="118" y="-377"/>
      <point x="28" y="-216" type="qcurve"/>
      <point x="110" y="-159" type="line"/>
      <point x="177" y="-264"/>
      <point x="421" y="-424"/>
      <point x="628" y="-424" type="qcurve" smooth="yes"/>
      <point x="876" y="-424"/>
      <point x="1128" y="-137"/>
      <point x="1124" y="107" type="qcurve"/>
      <point x="1237" y="109" type="line"/>
      <point x="1253" y="-163"/>
      <point x="924" y="-534"/>
    </contour>
  </outline>
</glyph>
<glyph name="ogonekcomb.case" format="2">
	<advance width="1024"/>
	<outline>
		<contour>
			<point x="387" y="-243" type="qcurve" smooth="yes"/>
			<point x="387" y="-171"/>
			<point x="471" y="-71"/>
			<point x="580" y="12" type="qcurve" smooth="yes"/>
			<point x="608" y="33" type="line"/>
			<point x="640" y="0" type="line"/>
			<point x="620" y="-17" type="line" smooth="yes"/>
			<point x="549" y="-79"/>
			<point x="477" y="-178"/>
			<point x="477" y="-243" type="qcurve" smooth="yes"/>
			<point x="477" y="-296"/>
			<point x="543" y="-362"/>
			<point x="623" y="-362" type="qcurve" smooth="yes"/>
			<point x="678" y="-362"/>
			<point x="746" y="-316"/>
			<point x="793" y="-274" type="qcurve"/>
			<point x="820" y="-307" type="line"/>
			<point x="778" y="-355"/>
			<point x="667" y="-427"/>
			<point x="593" y="-427" type="qcurve" smooth="yes"/>
			<point x="472" y="-427"/>
			<point x="387" y="-329"/>
		</contour>
	</outline>
</glyph>
<glyph name="ve.bgr" format="2">
	<advance width="1054"/>
	<outline>
		<contour>
			<point x="120" y="356" type="qcurve" smooth="yes"/>
			<point x="120" y="1111" type="line" smooth="yes"/>
			<point x="120" y="1293"/>
			<point x="335.4832535885" y="1514"/>
			<point x="537" y="1514" type="qcurve" smooth="yes"/>
			<point x="723.4626865672" y="1514"/>
			<point x="940" y="1323.3739612188"/>
			<point x="940" y="1146" type="qcurve" smooth="yes"/>
			<point x="940" y="1014.5769230769"/>
			<point x="812.4395051409" y="841.7323763285"/>
			<point x="702" y="789" type="qcurve"/>
			<point x="702" y="785" type="line"/>
			<point x="839" y="747"/>
			<point x="990" y="558.9212598425"/>
			<point x="990" y="397" type="qcurve" smooth="yes"/>
			<point x="990" y="187"/>
			<point x="747.6923076923" y="-23"/>
			<point x="549" y="-23" type="qcurve" smooth="yes"/>
			<point x="341" y="-23"/>
			<point x="120" y="170"/>
		</contour>
		<contour>
			<point x="537" y="1394" type="qcurve" smooth="yes"/>
			<point x="394.4814814815" y="1394"/>
			<point x="241" y="1260"/>
			<point x="241" y="1112" type="qcurve" smooth="yes"/>
			<point x="241" y="823" type="line"/>
			<point x="500" y="823" type="line" smooth="yes"/>
			<point x="646" y="823"/>
			<point x="813" y="991.2375"/>
			<point x="813" y="1136" type="qcurve" smooth="yes"/>
			<point x="813" y="1266.5418326693"/>
			<point x="675.5018181818" y="1394"/>
		</contour>
		<contour>
			<point x="241" y="356" type="line" smooth="yes"/>
			<point x="241" y="218"/>
			<point x="397" y="89"/>
			<point x="549" y="89" type="qcurve" smooth="yes"/>
			<point x="707" y="89"/>
			<point x="863" y="244.1367781155"/>
			<point x="863" y="408" type="qcurve" smooth="yes"/>
			<point x="863" y="555.5961538462"/>
			<point x="682" y="715"/>
			<point x="509" y="715" type="qcurve" smooth="yes"/>
			<point x="241" y="715" type="line"/>
		</contour>
	</outline>
</glyph>
